<svg width="375" height="520" viewBox="0 0 375 520" fill="none" xmlns="http://www.w3.org/2000/svg">
<path fill-rule="evenodd" clip-rule="evenodd" d="M274.816 50.6593V48.3127L273.63 46.1953V42.8957L271.049 38.8545V31.091H270.307L269.547 27.9167V24.9145H268.827L268.042 21.7618L267.787 10L267.511 21.7618L266.751 24.9145H266.009V27.9167L265.246 31.091H264.504V38.8545L261.945 42.8957V46.1953L260.737 48.3127V50.6593H256.716V139.695L248.461 144.94V107.054H231.952V169.33H226.261V207.661H219.827V199.539H210.028V178.556H176.989V179.953H148.268V182.977H176.989V184.922H148.268V187.949H167.741V189.895H148.268V192.918H167.741V194.864H148.268V197.888H167.741V199.833H148.268V202.86H167.741V204.806H143.931V155.666L147.107 153.173H191.024V143.188H138.598L126.301 146.677V154.631L136.863 152.051V154.208L126.301 156.788V160.173L136.863 157.594V159.75L126.301 162.33V165.716L136.863 163.136V165.293L126.301 167.872V171.258L136.863 168.675V170.832L126.301 173.411V176.797L136.863 174.217V176.374L126.301 178.953V182.339L133.58 180.562V182.719L126.301 184.496V187.881L133.58 186.104V188.261L126.301 190.038V193.424L133.58 191.647V193.803L126.301 195.58V197.314H118.745V204.569H111.19V197.081L96.8385 190.353V162.391H85.516V68.3432L81.7705 67.3902C80.2688 60.3467 75.2939 53.2173 67.9283 49.2191L66.2366 31.7466L64.5628 49.2191C57.1972 53.2173 52.2223 60.3467 50.7206 67.3902L46.9751 68.3432V130.405L32.4554 137.004V180.687L22.9931 187.774V168.291H11.1832V96.8967H-18.9564V104.556H-25.4546V194.649H-33.5836V166.661H-50.9383V181.214H-53.458V208.08H-64.3791V212.669L-113.888 219H437.112L385.446 212.189H381.657V204.025H369.615V188.075H357.02V129.309H326.224V162.33H321.188V204.025H305.228V162.882H296.106V128.001L278.834 114.315V112.707L296.106 126.393V124.784L278.834 111.098V109.49L296.106 123.175V121.567L278.834 107.86V106.251L296.106 119.958V118.328L278.834 104.642V103.034L296.106 116.719V115.111L278.834 101.425V99.8166L296.106 113.502V111.872L278.834 98.1865V96.5779L296.106 110.264V108.655L278.834 94.9693V93.3607L296.106 107.046V105.416L278.834 91.7306V90.122L296.106 103.808V102.199L278.834 88.5134V86.9048L296.106 100.59V98.9603L278.834 85.2747V83.6661L296.106 97.3517V95.7431L278.834 82.0575V80.4489L296.106 94.1345V92.5259L278.834 78.8188V77.2102L296.106 90.9173V89.2908L278.834 75.6052V73.9966L296.106 87.6822V86.0736L278.834 72.388V70.7794L296.106 84.465V82.8349L278.834 69.1493V67.5407L296.106 81.2263V79.6177L278.834 65.932V64.3234L296.106 78.0091V76.379L278.834 62.6934V61.0847L296.106 74.7704V73.1618L278.834 59.4761V57.8675L296.106 71.5532V69.9231L278.834 56.2374V54.6288L296.106 68.3145V64.5277L278.834 50.6306H274.812L274.816 50.6593ZM133.577 197.318V197.193L133.111 197.318H133.577ZM148.268 155.093H191.021V158.138H148.268V155.093ZM148.268 160.066H191.021V163.111H148.268V160.066ZM148.268 165.038H191.021V168.084H148.268V165.038ZM148.268 170.008H191.021V173.053H148.268V170.008ZM148.268 174.98H191.021V178.025H148.268V174.98ZM8.6599 99.186H1.59184V101.131H8.6599V99.186ZM8.6599 106.928H1.59184V108.873H8.6599V106.928ZM-1.24686 103.059H-8.2934V105.004H-1.24686V103.059ZM8.6599 103.059H1.59184V105.004H8.6599V103.059ZM-1.24686 99.186H-8.2934V101.131H-1.24686V99.186ZM48.4303 69.8049L49.8496 69.4645V70.8832L48.4303 71.2236V69.8049ZM62.6309 69.1922L64.0502 68.834V70.2527L62.6309 70.611V69.1922ZM62.6309 66.3548L64.0502 65.9965V67.4153L62.6309 67.7735V66.3584V66.3548ZM59.7958 78.3924L61.2151 78.0342V79.4529L59.7958 79.8112V78.396V78.3924ZM59.7958 75.5586L61.2151 75.2003V76.619L59.7958 76.9773V75.5586ZM59.7958 72.7247L61.2151 72.3665V73.7852L59.7958 74.1434V72.7247ZM59.7958 69.8658L61.2151 69.529V70.9442L59.7958 71.3024V69.8622V69.8658ZM59.7958 67.0319L61.2151 66.6952V68.1139L59.7958 68.4506V67.0319ZM56.9607 81.9249L58.38 81.5667V82.9818L56.9607 83.3401V81.9213V81.9249ZM56.9607 79.0911L58.38 78.7328V80.1515L56.9607 80.5098V79.0946V79.0911ZM56.9607 76.2357L58.38 75.8953V77.3141L56.9607 77.6508V76.2321V76.2357ZM56.9607 73.4018L58.38 73.0615V74.4802L56.9607 74.817V73.4018ZM56.9607 70.5644L58.38 70.2276V71.6428L56.9607 71.9795V70.5608V70.5644ZM56.9607 67.7305L58.38 67.3938V68.8089L56.9607 69.1493V67.7305ZM54.1005 85.4574L55.5198 85.0991V86.5179L54.1005 86.8761V85.4574ZM54.1005 82.602L55.5198 82.2653V83.6804L54.1005 84.0208V82.602ZM54.1005 79.7682L55.5198 79.4314V80.8501L54.1005 81.1905V79.7718V79.7682ZM54.1005 76.9343L55.5198 76.594V78.0127L54.1005 78.3494V76.9307V76.9343ZM54.1005 74.1004L55.5198 73.7601V75.1788L54.1005 75.5156V74.1004ZM54.1005 71.263L55.5198 70.9262V72.3414L54.1005 72.6781V71.263ZM54.1005 68.4291L55.5198 68.0709V69.5075L54.1005 69.8479V68.4291ZM51.2654 91.8237L52.6847 91.4619V92.8806L51.2654 93.2389V91.8237ZM51.2654 88.9684L52.6847 88.6316V90.0503L51.2654 90.3871V88.9684ZM51.2654 86.1345L52.6847 85.7942V87.2129L51.2654 87.5496V86.1345ZM51.2654 83.3006L52.6847 82.9639V84.379L51.2654 84.7194V83.3006ZM51.2654 80.4632L52.6847 80.1264V81.5452L51.2654 81.8819V80.4632ZM51.2654 77.6293L52.6847 77.289V78.7077L51.2654 79.0481V77.6293ZM51.2654 74.7955L52.6847 74.4372V75.8774L51.2654 76.2142V74.7955ZM51.2654 71.9616L52.6847 71.6034V73.0221L51.2654 73.3803V71.9652V71.9616ZM51.2654 69.1278L52.6847 68.7695V70.1882L51.2654 70.5465V69.1278ZM48.4303 95.3347L49.8496 94.9979V96.4131L48.4303 96.7534V95.3347ZM48.4303 92.5008L49.8496 92.1641V93.5828L48.4303 93.9232V92.5044V92.5008ZM48.4303 89.667L49.8496 89.3266V90.7454L48.4303 91.0821V89.6634V89.667ZM48.4303 86.8331L49.8496 86.4928V87.9115L48.4303 88.2483V86.8331ZM48.4303 83.9993L49.8496 83.6625V85.0776L48.4303 85.4144V83.9957V83.9993ZM48.4303 81.1618L49.8496 80.8036V82.2402L48.4303 82.5805V81.1618ZM48.4303 78.328L49.8496 77.9661V79.3848L48.4303 79.7431V78.3244V78.328ZM48.4303 75.4941L49.8496 75.1358V76.551L48.4303 76.9092V75.4905V75.4941ZM48.4303 72.6387L49.8496 72.302V73.7207L48.4303 74.079V72.6387ZM37.0217 139.462L38.545 138.889V199.471L37.0217 200.041V139.458V139.462ZM63.4373 129.52L64.9606 128.951V189.533L63.4373 190.124V129.52ZM57.9535 131.595L59.4768 131.003V191.607L57.9535 192.177V131.595ZM52.4517 133.644L53.975 133.074V193.678L52.4517 194.248V133.644ZM46.9679 135.718L48.4912 135.148V195.731L46.9679 196.322V135.718ZM41.9966 137.581L43.5199 137.011V197.615L41.9966 198.185V137.581ZM243.425 152.979L244.461 152.281V178.574L243.425 179.294V152.979ZM263.683 139.272L264.719 138.552V183.059L263.683 183.758V139.272ZM260.296 141.558L261.332 140.859V185.345L260.296 186.043V141.558ZM256.931 143.84L257.967 143.141V181.472L256.931 182.171V143.84ZM253.544 146.126L254.579 145.427V183.758L253.544 184.456V146.126ZM250.178 148.411L251.214 147.713V174.006L250.178 174.726V148.411ZM246.812 150.694L247.848 149.995V176.288L246.812 177.008V150.694ZM266.328 42.1577H265.354V32.3413H266.328V42.1577ZM270.221 42.1577H269.246V32.3413H270.221V42.1577ZM268.275 42.1577H267.3V32.3413H268.275V42.1577Z" fill="#343434"/>
<rect x="-113.888" y="219" width="551" height="636" fill="#343434"/>
</svg>
